<svg width="32" height="32" viewBox="0 0 32 32" fill="none" xmlns="http://www.w3.org/2000/svg">
<g clip-path="url(#clip0_2_421)">
<path d="M19.9998 17.334C19.2625 17.334 18.6666 17.9314 18.6666 18.6672V24.0007C18.6666 24.7353 18.0691 25.3339 17.3331 25.3339H13.3331V5.33412C13.3331 4.19545 12.6078 3.17813 11.5172 2.79947L11.1224 2.66739H17.3331C18.0691 2.66739 18.6666 3.26602 18.6666 4.00088V8.00084C18.6666 8.73667 19.2625 9.33408 19.9998 9.33408C20.7371 9.33408 21.333 8.73667 21.333 8.00084V4.00088C21.333 1.79558 19.5384 0.000915527 17.3331 0.000915527H2.99997C2.94919 0.000915527 2.90671 0.0236204 2.85739 0.0302121C2.79318 0.0248411 2.7319 0.000915527 2.66672 0.000915527C1.19603 0.000915527 0 1.1967 0 2.66739V26.6672C0 27.8058 0.725334 28.8231 1.8159 29.2018L9.83998 31.8766C10.112 31.9606 10.3825 32.0006 10.6666 32.0006C12.1373 32.0006 13.3331 30.8046 13.3331 29.3339V28.0006H17.3331C19.5384 28.0006 21.333 26.206 21.333 24.0007V18.6672C21.333 17.9314 20.7371 17.334 19.9998 17.334Z" fill="#B8B4CB"/>
<path d="M31.6091 12.3909L26.2757 7.05771C25.8946 6.67637 25.3211 6.56162 24.8226 6.76816C24.3253 6.97495 23.9998 7.46152 23.9998 8.00033V12.0003H18.6666C17.9306 12.0003 17.3332 12.5974 17.3332 13.3335C17.3332 14.0696 17.9306 14.6668 18.6666 14.6668H23.9998V18.6667C23.9998 19.2055 24.3253 19.6921 24.8226 19.8989C25.3211 20.1054 25.8946 19.9907 26.2757 19.6096L31.6091 14.2761C32.1304 13.7549 32.1304 12.9121 31.6091 12.3909Z" fill="#B8B4CB"/>
</g>
<defs>
<clipPath id="clip0_2_421">
<rect width="32" height="32" fill="white"/>
</clipPath>
</defs>
</svg>
